Patient4_TMGait_0pt2_01_left_21_GRF.mot
version=1
nRows=71
nColumns=19
inDegrees=no
endheader
time	F1x	F1y	F1z	M1x	M1y	M1z	F2x	F2y	F2z	M2x	M2y	M2z	EC1x	EC1y	EC1z	EC2x	EC2y	EC2z
48.29	-7.5619	3.9099	2.7858	-2.011	-6.2778	1.4266	-8.9627	808.3575	-31.1568	289.9862	34.9684	799.0959	-0.0592	0.0182	-0.0073	-0.0462	0.0165	0.9585
48.3119	-5.3015	2.5529	2.0109	-1.3249	-4.4516	0.87168	-10.8231	813.5542	-32.0173	292.0593	35.888	802.4144	-0.0592	0.0182	-0.0073	-0.0462	0.0165	0.9585
48.3337	-3.3351	1.3684	1.3367	-0.73348	-2.8684	0.38094	-12.3524	819.4027	-32.6878	294.3464	36.58	806.0711	-0.0592	0.0182	-0.0073	-0.0462	0.0165	0.9585
48.3556	-1.804	0.44926	0.81719	-0.28135	-1.6455	0.0068147	-13.4502	825.2554	-33.0666	296.6079	36.9464	809.5065	-0.0592	0.0182	-0.0073	-0.0462	0.0165	0.9585
48.3774	-0.72023	-0.19465	0.45572	0.029756	-0.79288	-0.24537	-14.097	830.4379	-33.1093	298.599	36.9448	812.1165	-0.0592	0.0182	-0.0073	-0.0462	0.0165	0.9585
48.3993	-0.029464	-0.60089	0.23236	0.22181	-0.26324	-0.39659	-14.3195	834.2719	-32.8232	300.0724	36.5803	813.2807	-0.0592	0.0182	-0.0073	-0.0462	0.0165	0.9585
48.4211	0.34964	-0.8334	0.1156	0.32837	0.015499	-0.48162	-14.179	836.0447	-32.2625	300.7665	35.9035	812.3281	-0.0592	0.0182	-0.0073	-0.0462	0.0165	0.9585
48.443	0.49866	-0.96893	0.07155	0.38657	0.11659	-0.55048	-13.7372	835.0545	-31.5055	300.4282	34.9875	808.5837	-0.0592	0.0182	-0.0073	-0.0462	0.0165	0.9585
48.4649	0.48818	-1.0891	0.071685	0.43319	0.10193	-0.66126	-13.0231	830.744	-30.6083	298.8671	33.8738	801.4902	-0.0592	0.0182	-0.0073	-0.0462	0.0165	0.9585
48.4867	0.37702	-1.2725	0.09312	0.50185	0.022143	-0.87422	-12.0206	822.856	-29.5754	296.0136	32.5436	790.7488	-0.0592	0.0182	-0.0073	-0.0462	0.0165	0.9585
48.5086	0.21427	-1.5924	0.12031	0.62235	-0.082021	-1.2492	-10.6588	811.5325	-28.377	291.9495	30.9308	776.4196	-0.0592	0.0182	-0.0073	-0.0462	0.0165	0.9585
48.5304	0.03876	-2.1111	0.14092	0.81972	-0.17801	-1.8365	-8.8248	797.3376	-26.987	286.907	28.9563	758.9574	-0.0592	0.0182	-0.0073	-0.0462	0.0165	0.9585
48.5523	-0.11844	-2.8625	0.14385	1.1067	-0.24278	-2.6613	-6.391	781.2303	-25.4204	281.2478	26.5729	739.2119	-0.0592	0.0182	-0.0073	-0.0462	0.0165	0.9585
48.5741	-0.22697	-3.8277	0.11858	1.475	-0.25665	-3.7024	-3.266	764.4902	-23.7604	275.4322	23.8081	718.3871	-0.0592	0.0182	-0.0073	-0.0462	0.0165	0.9585
48.596	-0.24894	-4.9099	0.054384	1.8856	-0.19473	-4.86	0.55247	748.5975	-22.1616	269.9748	20.7849	697.9381	-0.0592	0.0182	-0.0073	-0.0462	0.0165	0.9585
48.6179	-0.13754	-5.8987	-0.061592	2.2588	-0.023206	-5.9192	4.9582	735.0465	-20.834	265.3783	17.7168	679.3946	-0.0592	0.0182	-0.0073	-0.0462	0.0165	0.9585
48.6397	0.15644	-6.4315	-0.23928	2.4582	0.28844	-6.5171	9.7294	725.0837	-19.9929	262.0506	14.8701	664.1198	-0.0592	0.0182	-0.0073	-0.0462	0.0165	0.9585
48.6616	0.68067	-5.9669	-0.47975	2.2787	0.76037	-6.1084	14.5372	719.3725	-19.7876	260.1924	12.5009	652.9725	-0.0592	0.0182	-0.0073	-0.0462	0.0165	0.9585
48.6834	1.4745	-3.7675	-0.77223	1.4401	1.3943	-3.9352	18.9958	717.7419	-20.2764	259.7118	10.819	646.0418	-0.0592	0.0182	-0.0073	-0.0462	0.0165	0.9585
48.7053	2.5539	1.0877	-1.0852	-0.40575	2.1591	0.9573	22.7722	719.2004	-21.42	260.2303	9.9397	642.62	-0.0592	0.0182	-0.0073	-0.0462	0.0165	0.9585
48.7271	3.8795	9.6153	-1.352	-3.6403	2.9671	9.6302	25.6741	722.1334	-23.0926	261.1536	9.8586	641.3542	-0.0592	0.0182	-0.0073	-0.0462	0.0165	0.9585
48.749	5.3126	22.735	-1.459	-8.6075	3.6439	23.0626	27.646	724.5295	-25.1109	261.7514	10.467	640.4578	-0.0592	0.0182	-0.0073	-0.0462	0.0165	0.9585
48.7709	6.566	40.9633	-1.2376	-15.4965	3.8996	41.8314	28.7126	724.251	-27.2589	261.257	11.5903	637.9826	-0.0592	0.0182	-0.0073	-0.0462	0.0165	0.9585
48.7927	7.1608	64.0318	-0.49472	-24.1981	3.346	65.728	28.9222	719.4051	-29.3072	259.0055	13.0223	632.1718	-0.0592	0.0182	-0.0073	-0.0462	0.0165	0.9585
48.8146	6.6997	90.7649	0.94804	-34.2565	1.6388	93.6141	28.3304	708.6993	-31.0347	254.5663	14.5535	621.7863	-0.0592	0.0182	-0.0073	-0.0462	0.0165	0.9585
48.8364	5.1825	119.3445	3.2097	-44.969	-1.353	123.6421	27.013	691.6755	-32.2376	247.8304	15.9835	606.31	-0.0592	0.0182	-0.0073	-0.0462	0.0165	0.9585
48.8583	2.9053	147.6466	6.107	-55.5408	-5.3197	153.578	25.0917	668.8114	-32.7516	239.0364	17.1273	586.0368	-0.0592	0.0182	-0.0073	-0.0462	0.0165	0.9585
48.8801	0.31586	173.7263	9.0824	-65.2777	-9.4895	181.3355	22.7502	641.4539	-32.5037	228.7247	17.8544	562.0109	-0.0592	0.0182	-0.0073	-0.0462	0.0165	0.9585
48.902	-2.2367	196.7607	11.6435	-73.9076	-13.2058	206.0049	20.2411	611.5952	-31.5697	217.6373	18.1314	535.8353	-0.0592	0.0182	-0.0073	-0.0462	0.0165	0.9585
48.9239	-4.6012	217.2511	13.56	-81.6355	-16.1718	228.0874	17.8505	581.4238	-30.1825	206.5522	18.0333	509.2948	-0.0592	0.0182	-0.0073	-0.0462	0.0165	0.9585
48.9457	-6.7395	236.1935	14.8515	-88.8299	-18.4005	248.6162	15.8126	552.773	-28.626	196.098	17.6869	483.9065	-0.0592	0.0182	-0.0073	-0.0462	0.0165	0.9585
48.9676	-8.6454	254.4107	15.6992	-95.7778	-20.081	268.4277	14.2563	526.7912	-27.1545	186.6523	17.2355	460.642	-0.0592	0.0182	-0.0073	-0.0462	0.0165	0.9585
48.9894	-10.3258	272.3145	16.3334	-102.6071	-21.4494	287.8966	13.2037	503.8927	-25.9573	178.3374	16.8109	439.8725	-0.0592	0.0182	-0.0073	-0.0462	0.0165	0.9585
49.0113	-11.7904	290.0763	16.939	-109.3608	-22.6905	307.1168	12.622	483.8761	-25.1299	171.0705	16.4956	421.4604	-0.0592	0.0182	-0.0073	-0.0462	0.0165	0.9585
49.0331	-13.0265	307.9569	17.6106	-116.1258	-23.888	326.2499	12.4773	466.0809	-24.6653	164.6202	16.2964	404.8839	-0.0592	0.0182	-0.0073	-0.0462	0.0165	0.9585
49.055	-13.9955	326.4075	18.38	-123.0676	-25.058	345.6507	12.7527	449.5622	-24.4731	158.6616	16.1519	389.3849	-0.0592	0.0182	-0.0073	-0.0462	0.0165	0.9585
49.0769	-14.6536	345.919	19.2771	-130.3668	-26.2224	365.7429	13.4321	433.281	-24.4276	152.8349	15.9729	374.124	-0.0592	0.0182	-0.0073	-0.0462	0.0165	0.9585
49.0987	-14.9947	366.7919	20.3422	-138.1317	-27.4327	386.8083	14.4591	416.2829	-24.4199	146.8025	15.6952	358.3324	-0.0592	0.0182	-0.0073	-0.0462	0.0165	0.9585
49.1206	-15.069	388.9579	21.594	-146.3326	-28.7403	408.811	15.7109	397.799	-24.368	140.2846	15.2972	341.3977	-0.0592	0.0182	-0.0073	-0.0462	0.0165	0.9585
49.1424	-14.955	411.9738	23.0096	-154.8009	-30.1604	431.3723	17.0132	377.2671	-24.1954	133.0709	14.7765	322.8804	-0.0592	0.0182	-0.0073	-0.0462	0.0165	0.9585
49.1643	-14.7177	435.2117	24.5397	-163.2989	-31.666	453.9307	18.1886	354.3216	-23.8187	125.0213	14.1249	302.5049	-0.0592	0.0182	-0.0073	-0.0462	0.0165	0.9585
49.1861	-14.405	458.1524	26.1367	-171.632	-33.2137	476.0202	19.0903	328.7788	-23.1562	116.0624	13.3238	280.1358	-0.0592	0.0182	-0.0073	-0.0462	0.0165	0.9585
49.208	-14.0517	480.6357	27.782	-179.7441	-34.7793	497.5089	19.6135	300.6126	-22.142	106.1776	12.3495	255.7551	-0.0592	0.0182	-0.0073	-0.0462	0.0165	0.9585
49.2299	-13.6841	502.9493	29.4994	-187.7527	-36.3818	518.6854	19.6878	269.9721	-20.742	95.4134	11.19	229.4776	-0.0592	0.0182	-0.0073	-0.0462	0.0165	0.9585
49.2517	-13.3237	525.7461	31.3412	-195.9251	-38.0713	540.1813	19.2635	237.2594	-18.965	83.9055	9.8659	201.6176	-0.0592	0.0182	-0.0073	-0.0462	0.0165	0.9585
49.2736	-12.9922	549.89	33.341	-204.6207	-39.8822	562.8183	18.3126	203.2197	-16.8739	71.9119	8.4398	172.7645	-0.0592	0.0182	-0.0073	-0.0462	0.0165	0.9585
49.2954	-12.7315	576.224	35.4794	-214.2006	-41.8048	587.3892	16.8389	168.9687	-14.5847	59.826	7.0095	143.8151	-0.0592	0.0182	-0.0073	-0.0462	0.0165	0.9585
49.3173	-12.5998	605.2676	37.6872	-224.9014	-43.7839	614.3684	14.9011	135.8851	-12.2478	48.1385	5.684	115.8876	-0.0592	0.0182	-0.0073	-0.0462	0.0165	0.9585
49.3391	-12.6627	637.0185	39.8678	-236.7504	-45.7382	643.7228	12.6074	105.358	-10.0122	37.3442	4.552	90.1125	-0.0592	0.0182	-0.0073	-0.0462	0.0165	0.9585
49.361	-12.9659	670.9537	41.9321	-249.5567	-47.5862	674.917	10.0924	78.4887	-7.9819	27.8367	3.6584	67.3929	-0.0592	0.0182	-0.0073	-0.0462	0.0165	0.9585
49.3829	-13.4928	706.1133	43.8291	-262.9382	-49.2585	706.9996	7.4977	55.8917	-6.1992	19.8387	2.9958	48.2412	-0.0592	0.0182	-0.0073	-0.0462	0.0165	0.9585
49.4047	-14.1355	741.0846	45.566	-276.3177	-50.7158	738.5846	4.9804	37.6883	-4.6686	13.3972	2.5188	32.7718	-0.0592	0.0182	-0.0073	-0.0462	0.0165	0.9585
49.4266	-14.7179	774.0606	47.193	-288.9534	-51.9475	767.9109	2.7349	23.6322	-3.3739	8.4271	2.1498	20.7929	-0.0592	0.0182	-0.0073	-0.0462	0.0165	0.9585
49.4484	-15.0375	803.1001	48.7637	-300.0521	-52.9489	793.1123	0.96674	13.2944	-2.2946	4.7762	1.8028	11.9539	-0.0592	0.0182	-0.0073	-0.0462	0.0165	0.9585
49.4703	-14.8994	826.389	50.3086	-308.8771	-53.7084	812.4695	-0.20571	6.195	-1.4269	2.2718	1.4357	5.8614	-0.0592	0.0182	-0.0073	-0.0462	0.0165	0.9585
49.4921	-14.1312	842.4697	51.8172	-314.8439	-54.1892	824.6102	-0.86368	1.8129	-0.78297	0.72601	1.0878	2.0906	-0.0592	0.0182	-0.0073	-0.0462	0.0165	0.9585
49.514	-12.5905	850.4677	53.2286	-317.6205	-54.3156	828.7182	-1.1524	-0.47913	-0.34806	-0.08443	0.79911	0.1181	-0.0592	0.0182	-0.0073	-0.0462	0.0165	0.9585
49.5359	-10.2105	850.335	54.4175	-317.2216	-53.9628	824.7701	-1.2044	-1.32	-0.084726	-0.38533	0.58355	-0.60615	-0.0592	0.0182	-0.0073	-0.0462	0.0165	0.9585
49.5577	-7.062	842.9598	55.1961	-314.0446	-52.9831	813.6605	-1.1277	-1.2726	0.051431	-0.37556	0.43993	-0.57077	-0.0592	0.0182	-0.0073	-0.0462	0.0165	0.9585
49.5796	-3.346	830.0977	55.3573	-308.8251	-51.2472	797.1315	-0.99934	-0.79084	0.10268	-0.21616	0.35734	-0.17172	-0.0592	0.0182	-0.0073	-0.0462	0.0165	0.9585
49.6014	0.70248	814.0807	54.7556	-302.5027	-48.6893	777.4709	-0.86544	-0.21767	0.10435	-0.028534	0.31875	0.28645	-0.0592	0.0182	-0.0073	-0.0462	0.0165	0.9585
49.6233	4.8771	797.3813	53.3682	-296.0408	-45.3501	757.0817	-0.74931	0.19945	0.083301	0.10035	0.30572	0.57589	-0.0592	0.0182	-0.0073	-0.0462	0.0165	0.9585
49.6451	9.031	782.1635	51.2974	-290.2579	-41.3764	738.0568	-0.65563	0.28805	0.058894	0.1099	0.29884	0.53252	-0.0592	0.0182	-0.0073	-0.0462	0.0165	0.9585
49.667	13.0772	769.8826	48.7465	-285.6868	-36.9938	721.8135	-0.57446	-0.062331	0.044175	-0.039278	0.27901	0.045711	-0.0592	0.0182	-0.0073	-0.0462	0.0165	0.9585
49.6889	16.9757	761.1158	45.9789	-282.5165	-32.4694	708.9381	-0.48631	-0.90312	0.048716	-0.36578	0.22766	-0.93642	-0.0592	0.0182	-0.0073	-0.0462	0.0165	0.9585
49.7107	20.7359	755.6806	43.2661	-280.6434	-28.0615	699.2921	-0.36499	-2.2097	0.08065	-0.86058	0.12511	-2.3911	-0.0592	0.0182	-0.0073	-0.0462	0.0165	0.9585
49.7326	24.3988	752.9003	40.847	-279.7768	-23.9876	692.2691	-0.17922	-3.852	0.14938	-1.4771	-0.05033	-4.1902	-0.0592	0.0182	-0.0073	-0.0462	0.0165	0.9585
49.7544	27.9995	751.902	38.9147	-279.5562	-20.4236	687.0898	0.10213	-5.5497	0.26287	-2.1129	-0.31684	-6.0437	-0.0592	0.0182	-0.0073	-0.0462	0.0165	0.9585
49.7763	31.5455	751.8555	37.6032	-279.6417	-17.4985	683.0353	0.50329	-6.8128	0.42517	-2.5861	-0.68293	-7.4358	-0.0592	0.0182	-0.0073	-0.0462	0.0165	0.9585
49.7981	35.0078	752.0751	36.9735	-279.7518	-15.2856	679.5484	1.0319	-6.883	0.62723	-2.6125	-1.134	-7.5561	-0.0592	0.0182	-0.0073	-0.0462	0.0165	0.9585
49.82	38.2968	751.9068	37.0151	-279.6202	-13.8159	676.1325	1.6633	-4.6943	0.84067	-1.7903	-1.6195	-5.2563	-0.0592	0.0182	-0.0073	-0.0462	0.0165	0.9585
